<svg width="22" height="22" viewBox="0 0 22 22" fill="none" xmlns="http://www.w3.org/2000/svg">
<path fill-rule="evenodd" clip-rule="evenodd" d="M17.393 0.0599514C16.9146 0.175924 16.6476 0.352182 16.0368 0.955248L15.4663 1.51861L17.9594 4.01037L20.4526 6.50212L20.9519 6.00841C21.7446 5.22471 21.957 4.81668 21.957 4.07852C21.957 3.65678 21.885 3.3636 21.6871 2.97955C21.4928 2.60267 19.3469 0.457541 18.9667 0.260186C18.4798 0.0074436 17.9091 -0.0651735 17.393 0.0599514ZM8.76562 8.22173L2.7286 14.2588L5.22079 16.751L7.71298 19.2432L13.75 13.2061L19.787 7.169L17.2948 4.67681L14.8026 2.18463L8.76562 8.22173ZM1.12771 18.5453C0.507461 20.4065 0 21.9422 0 21.9578C0 21.9734 1.53957 21.4729 3.42126 20.8457L6.84252 19.7052L4.5708 17.4332C3.3214 16.1836 2.28929 15.1612 2.2773 15.1612C2.26527 15.1612 1.74797 16.684 1.12771 18.5453Z" fill="#E8C16F"/>
</svg>
