<svg width="334" height="333" viewBox="0 0 334 333" fill="none" xmlns="http://www.w3.org/2000/svg">
<path d="M219.351 99.6546C220.109 86.7791 237.184 82.7069 243.605 93.8965C245.055 96.4204 246.396 99.0055 247.63 101.647L219.351 99.6546Z" fill="#8C4E03"/>
<path d="M74.5392 215.815C65.8232 206.293 74.9913 191.429 87.532 194.693C90.925 195.579 94.3936 196.302 97.9338 196.855L83.5205 224.513C80.3493 221.789 77.3502 218.883 74.5392 215.815Z" fill="#8C4E03"/>
<path d="M219.433 99.5904L247.687 101.583C256.154 119.725 259.453 140.49 256.032 161.745C246.849 218.799 193.185 257.537 135.753 248.569C115.691 245.436 97.8737 236.854 83.5828 224.576L98.0005 196.916C155.231 205.852 209.133 166.947 218.28 110.088C218.846 106.57 219.228 103.067 219.433 99.5904Z" fill="#E8C16F"/>
<path d="M139.349 226.399C121.836 223.665 106.033 216.781 92.7906 206.913L83.5839 224.57C97.882 236.85 115.708 245.434 135.78 248.567C193.241 257.536 246.931 218.792 256.118 161.728C256.72 157.989 257.11 154.266 257.304 150.568C243.418 201.51 193.032 234.778 139.349 226.399Z" fill="#E8C16F"/>
<path d="M223.293 143.487C223.24 143.816 223.14 144.144 222.99 144.461C214.464 162.453 201.283 178.224 184.872 190.069C166.425 203.384 144.796 211.197 122.323 212.664C120.314 212.795 118.583 211.285 118.456 209.291C118.33 207.296 119.855 205.573 121.864 205.442C142.958 204.064 163.267 196.725 180.595 184.218C196.012 173.091 208.391 158.282 216.394 141.394C217.252 139.583 219.424 138.802 221.245 139.65C222.748 140.347 223.542 141.937 223.293 143.487Z" fill="#E8C16F"/>
<path d="M109.636 209.72C109.954 207.745 108.6 205.893 106.613 205.583C104.625 205.272 102.756 206.621 102.438 208.596C102.121 210.57 103.474 212.422 105.462 212.733C107.45 213.043 109.318 211.694 109.636 209.72Z" fill="#E8C16F"/>
<path d="M228.688 84.1589C221.332 85.8845 216.281 91.8679 215.828 99.3863C215.624 102.757 215.243 106.169 214.697 109.527C210.381 136.07 195.921 159.41 173.979 175.248C152.037 191.087 125.262 197.511 98.5861 193.338C95.2134 192.811 91.8395 192.109 88.5571 191.254C81.2334 189.345 73.9585 192.263 70.0237 198.688C66.1105 205.078 66.8474 212.782 71.8994 218.317C88.3474 236.336 110.767 248.351 135.03 252.145C163.721 256.633 192.443 249.777 215.906 232.841C239.368 215.906 254.846 190.857 259.488 162.309C263.413 138.166 258.921 113.211 246.839 92.0402C243.128 85.5369 236.003 82.4434 228.688 84.1589ZM77.2999 213.439C75.0683 210.994 74.5502 208.292 74.9363 205.918C75.146 204.628 75.6229 203.435 76.2364 202.433C77.998 199.557 81.6666 196.95 86.6816 198.257C88.5992 198.756 90.5473 199.202 92.507 199.6L82.5084 218.74C80.7189 217.044 78.98 215.279 77.2999 213.439ZM211.646 226.99C189.761 242.788 162.964 249.182 136.192 244.995C118.224 242.185 101.846 234.891 88.1148 223.681L100.034 200.864C127.761 204.532 155.435 197.558 178.238 181.099C201.757 164.122 217.257 139.104 221.883 110.65C222.27 108.267 222.572 105.858 222.8 103.453L245.247 105.042C253.005 122.635 255.446 141.844 252.301 161.184C247.971 187.823 233.532 211.193 211.646 226.99ZM240.504 95.6339C240.862 96.2608 241.212 96.8905 241.556 97.5224L223.947 96.2764C225.271 93.3849 227.89 91.7758 230.329 91.2036C233.589 90.4392 237.974 91.2012 240.504 95.6339Z" fill="#333333"/>
<path d="M236.113 129.23C235.895 131.972 235.559 134.747 235.115 137.478C230.783 164.116 216.343 187.487 194.455 203.285C172.567 219.082 145.768 225.476 118.994 221.289C115.033 220.67 111.083 219.813 107.253 218.744C105.32 218.204 103.306 219.326 102.754 221.25C102.204 223.174 103.322 225.173 105.255 225.712C109.359 226.859 113.59 227.776 117.831 228.439C146.525 232.927 175.25 226.071 198.715 209.135C222.179 192.199 237.659 167.149 242.301 138.602C242.777 135.677 243.136 132.706 243.37 129.768C243.528 127.775 242.032 126.039 240.028 125.89C238.025 125.742 236.271 127.239 236.113 129.23Z" fill="#333333"/>
<path d="M48.6573 48.4108C63.9952 33.0028 82.2607 20.7873 102.389 12.4761C122.518 4.16489 144.107 -0.0758462 165.899 0.00102669C257.212 0.00102669 331.631 74.0517 331.714 164.96C331.714 194.077 324.061 222.403 309.613 247.482L333.052 333L245.147 310.065C220.829 323.237 193.585 330.142 165.899 330.149H165.815C74.481 330.149 0.0836487 256.098 0 165.106C-0.0209045 143.42 4.26947 121.945 12.6239 101.917C20.9784 81.889 33.2318 63.7044 48.6782 48.4108H48.6573ZM165.899 302.218C190.594 302.227 214.834 295.612 236.072 283.071L241.091 280.074L293.24 293.685L279.314 243.049L282.576 237.825C296.381 215.978 303.681 190.685 303.632 164.877C303.632 89.4112 241.802 27.8481 165.815 27.8481C147.713 27.8157 129.783 31.3503 113.059 38.2479C96.3356 45.1455 81.1492 55.2697 68.3753 68.0369C55.5569 80.7543 45.395 95.8719 38.4757 112.518C31.5565 129.164 28.0169 147.009 28.061 165.023C28.1447 240.759 89.9752 302.218 165.899 302.218Z" fill="#8C4E03"/>
</svg>
