<svg width="24" height="26" viewBox="0 0 24 26" fill="none" xmlns="http://www.w3.org/2000/svg">
<path fill-rule="evenodd" clip-rule="evenodd" d="M0.468032 0.103668C0.101647 0.300039 -0.0853919 0.774285 0.0377683 1.1948C0.0841058 1.35299 0.634293 1.97597 2.86844 4.39996L5.64156 7.40875H5.38102C4.99527 7.40875 4.59282 7.50219 4.34003 7.65042C4.04385 7.82404 3.71935 8.20678 3.56401 8.56565L3.43832 8.85602V12.9947V17.1334L3.58348 17.4634C3.76789 17.8829 4.05923 18.1984 4.44668 18.3981L4.75153 18.5552L6.94595 18.5707L9.14041 18.5862L13.3387 22.218C15.6478 24.2156 17.6091 25.8825 17.6971 25.9223C17.9039 26.0159 18.1018 26.014 18.3173 25.9166C18.54 25.8158 18.6465 25.7089 18.7562 25.4762C18.8383 25.3021 18.8451 25.1548 18.8451 23.5338C18.8451 22.5691 18.8605 21.7798 18.8795 21.7798C18.8984 21.7798 19.7796 22.715 20.8376 23.8581C22.7263 25.8986 22.7653 25.9369 22.9834 25.9712C23.3898 26.0349 23.7379 25.8471 23.9046 25.4742C24.0224 25.2107 24.0305 24.9943 23.9322 24.7362C23.8317 24.4727 1.45603 0.228894 1.18711 0.0922419C0.94013 -0.0332385 0.716885 -0.0297346 0.468032 0.103668ZM17.6926 0.0665974C17.5654 0.12657 10.2602 6.38795 9.99311 6.66592L9.8881 6.77526L14.3666 11.6241L18.8451 16.473V8.58728C18.8451 0.949479 18.8423 0.695675 18.7562 0.513168C18.6465 0.280437 18.54 0.173593 18.3173 0.0727927C18.1075 -0.0220667 17.8854 -0.024301 17.6926 0.0665974Z" fill="#E8C16F"/>
</svg>
