<svg width="32" height="28" viewBox="0 0 32 28" fill="none" xmlns="http://www.w3.org/2000/svg">
<path fill-rule="evenodd" clip-rule="evenodd" d="M30.9201 13.0849C30.4712 12.8509 1.9158 0.653843 1.75242 0.626357C1.48685 0.581703 1.06621 0.772778 0.902238 1.01245C0.63517 1.4029 0.630374 1.38638 2.85387 7.79066C4.00559 11.108 4.94791 13.8572 4.94791 13.9001C4.94791 13.9431 4.00559 16.6923 2.85388 20.0096C0.630377 26.4139 0.635174 26.3974 0.902242 26.7878C1.06622 27.0275 1.48685 27.2186 1.75242 27.1739C2.01748 27.1293 30.7128 14.8369 31.0338 14.6304C31.2565 14.4872 31.2946 14.4372 31.3709 14.1885C31.5095 13.7367 31.3307 13.299 30.9201 13.0849ZM16.2969 12.9796L6.5775 12.9796L4.88377 8.09562C3.70667 4.70114 3.21958 3.21831 3.28676 3.23351C3.41096 3.26163 25.9073 12.8891 25.9694 12.9407C25.9951 12.9621 21.6425 12.9796 16.2969 12.9796ZM14.6423 19.7208C8.4141 22.3906 3.29031 24.5756 3.25611 24.5764C3.2219 24.5771 3.9552 22.3824 4.88566 19.6993L6.57742 14.8207L16.2719 14.8206C21.6038 14.8206 25.9663 14.8309 25.9663 14.8435C25.9663 14.8562 20.8705 17.051 14.6423 19.7208Z" fill="#E8C16F"/>
</svg>
