<svg width="22" height="25" viewBox="0 0 22 25" fill="none" xmlns="http://www.w3.org/2000/svg">
<path fill-rule="evenodd" clip-rule="evenodd" d="M7.30723 0.0455392C6.7085 0.163102 6.10292 0.632883 5.84806 1.17752C5.67542 1.54643 5.61467 1.86251 5.61467 2.39182V2.80732H3.79292C2.74986 2.80732 1.8634 2.82776 1.71893 2.85518C0.844667 3.02098 0.174449 3.71796 0.0256205 4.61609C-0.115145 5.46565 0.334855 6.35525 1.112 6.76362L1.43361 6.93261L1.46295 7.202C1.47903 7.35017 1.76628 10.7831 2.1012 14.8308C2.43607 18.8784 2.72881 22.2702 2.75168 22.3681C2.92165 23.0954 3.58236 23.7518 4.31961 23.9257C4.74889 24.0269 16.3242 24.0269 16.7535 23.9257C17.4908 23.7518 18.152 23.0949 18.3213 22.3681C18.3441 22.2702 18.6368 18.8784 18.9718 14.8308C19.3069 10.7831 19.5941 7.35017 19.6102 7.202L19.6395 6.93261L19.9611 6.76362C20.7382 6.35525 21.1882 5.46565 21.0475 4.61609C20.8986 3.71796 20.2284 3.02098 19.3542 2.85518C19.2097 2.82776 18.3232 2.80732 17.2802 2.80732H15.4584V2.39182C15.4584 2.16335 15.4369 1.86284 15.4106 1.72409C15.2509 0.882212 14.571 0.202336 13.7292 0.0426799C13.4199 -0.0159608 7.60728 -0.0133827 7.30723 0.0455392ZM13.6784 1.49543C13.9582 1.63821 14.0522 1.86143 14.0522 2.38357V2.80732H10.5365H7.02092V2.38357C7.02092 1.86978 7.11528 1.63999 7.38472 1.49773C7.55375 1.40852 7.66559 1.40515 10.5267 1.40313C13.4097 1.40112 13.4986 1.40374 13.6784 1.49543ZM19.3034 4.30793C19.5114 4.41406 19.6772 4.68411 19.6772 4.9167C19.6772 5.14929 19.5114 5.41934 19.3034 5.52547C19.12 5.61903 19.045 5.61982 10.5365 5.61982C2.02807 5.61982 1.95312 5.61903 1.7697 5.52547C1.56171 5.41934 1.39592 5.14929 1.39592 4.9167C1.39592 4.69128 1.56181 4.41471 1.75971 4.31023C1.93231 4.2191 2.06515 4.2177 10.5267 4.21564C19.0471 4.21357 19.1199 4.21437 19.3034 4.30793ZM18.1977 7.22529C18.1842 7.33489 17.9007 10.7222 17.5678 14.7528C16.9121 22.6896 16.9647 22.2408 16.662 22.4665L16.5297 22.5652H10.5365H4.54343L4.41106 22.4665C4.10834 22.2408 4.16103 22.6896 3.50529 14.7528C3.17234 10.7222 2.88884 7.33489 2.87534 7.22529L2.85082 7.02608H10.5365H18.2223L18.1977 7.22529ZM5.9764 8.53006C5.85968 8.59166 5.76607 8.69159 5.70247 8.82256L5.60581 9.0215L5.96201 14.809C6.36031 21.2793 6.31592 20.8963 6.68951 21.0869C6.92637 21.2077 7.11547 21.2077 7.35232 21.0869C7.48128 21.0211 7.56954 20.9294 7.63648 20.7917L7.73356 20.5919L7.37689 14.805C6.97821 8.33586 7.02251 8.71822 6.6492 8.52776C6.41567 8.40861 6.20515 8.40936 5.9764 8.53006ZM10.1972 8.52898C10.0901 8.58556 9.98529 8.69337 9.92768 8.8063C9.83473 8.9885 9.83342 9.07297 9.83342 14.8073C9.83342 20.544 9.83473 20.6261 9.92778 20.8086C10.0339 21.0165 10.304 21.1823 10.5365 21.1823C10.7691 21.1823 11.0392 21.0165 11.1453 20.8086C11.2384 20.6261 11.2397 20.544 11.2397 14.8073C11.2397 9.07062 11.2384 8.98855 11.1453 8.80611C10.9723 8.46706 10.5489 8.34331 10.1972 8.52898ZM14.4139 8.53006C14.052 8.72108 14.0935 8.35794 13.6962 14.805L13.3395 20.5919L13.4366 20.7917C13.5035 20.9294 13.5918 21.0211 13.7208 21.0869C13.9576 21.2077 14.1467 21.2077 14.3836 21.0869C14.7572 20.8963 14.7128 21.2793 15.1111 14.809L15.4673 9.0215L15.3705 8.82237C15.1983 8.46772 14.7763 8.33881 14.4139 8.53006Z" fill="#E8C16F"/>
</svg>
