<svg width="26" height="26" viewBox="0 0 26 26" fill="none" xmlns="http://www.w3.org/2000/svg">
<path fill-rule="evenodd" clip-rule="evenodd" d="M9.37104 0.0454977C6.0373 0.421736 3.18329 2.23788 1.47678 5.06893C0.776511 6.23066 0.34228 7.41818 0.0927412 8.85432C-0.040255 9.6195 -0.0280675 11.3927 0.115542 12.1783C0.725831 15.5169 2.69376 18.208 5.63669 19.7284C7.21106 20.5417 8.63618 20.8849 10.4349 20.8835C12.6256 20.882 14.4218 20.3402 16.2477 19.1302L16.8554 18.7275L20.3864 22.2497C22.768 24.6254 23.9834 25.803 24.1204 25.8675C24.3956 25.9971 24.967 25.9981 25.2122 25.8696C25.8232 25.5491 26.1032 24.8913 25.898 24.2585C25.814 23.9993 25.6232 23.7985 22.2578 20.4261L18.7063 16.8673L19.0985 16.2874C20.9824 13.503 21.3961 10.0219 20.2267 6.7955C19.8434 5.73803 19.1117 4.50938 18.3195 3.59252C17.0002 2.06588 15.1329 0.886487 13.2193 0.37131C12.0485 0.056111 10.4648 -0.0779515 9.37104 0.0454977ZM11.1859 2.63463C13.1174 2.84614 14.6243 3.56322 15.9734 4.91293C17.3492 6.28941 18.0811 7.85165 18.2638 9.8018C18.4271 11.5451 17.96 13.3209 16.9302 14.8721C16.5026 15.5163 15.4994 16.5195 14.8552 16.9471C12.2505 18.6763 9.05051 18.7672 6.40297 17.1873C4.49248 16.0472 3.14845 14.1285 2.70676 11.9106C2.54517 11.0991 2.54517 9.80439 2.70676 8.99291C3.16227 6.70572 4.57094 4.75465 6.60026 3.60024C7.95653 2.82877 9.6677 2.46842 11.1859 2.63463Z" fill="#8C4E03"/>
</svg>
