<svg width="8" height="32" viewBox="0 0 8 32" fill="none" xmlns="http://www.w3.org/2000/svg">
<path fill-rule="evenodd" clip-rule="evenodd" d="M2.95012 0.123024C2.69925 0.188774 2.31956 0.333774 2.10637 0.445274C1.86087 0.573649 1.523 0.843774 1.18506 1.18171C0.847687 1.51909 0.577 1.85765 0.449125 2.10202C0.337937 2.31465 0.191375 2.7059 0.123438 2.9714C0.0470628 3.27009 0 3.66096 0 3.99665C0 4.33234 0.0470628 4.72321 0.123438 5.0219C0.191375 5.2874 0.337937 5.67865 0.449125 5.89127C0.575312 6.13252 0.852062 6.48021 1.18506 6.81596C1.60062 7.2349 1.82269 7.40371 2.18844 7.57884C2.44681 7.70252 2.84056 7.84671 3.06343 7.89927C3.28637 7.95184 3.70781 7.99477 4 7.99477C4.29218 7.99477 4.71362 7.95184 4.93656 7.89927C5.15943 7.84671 5.55318 7.70252 5.81156 7.57884C6.17474 7.40496 6.40324 7.23196 6.81931 6.81596C7.23531 6.3999 7.40831 6.1714 7.58218 5.80821C7.70587 5.54984 7.85005 5.15609 7.90262 4.93321C7.95518 4.71027 7.99855 4.28627 7.99905 3.99102C7.99962 3.65809 7.95312 3.27077 7.87655 2.9714C7.80862 2.7059 7.66206 2.31465 7.55087 2.10202C7.42299 1.85765 7.15231 1.51909 6.81493 1.18171C6.47756 0.844337 6.13899 0.573649 5.89462 0.445774C5.68199 0.334587 5.29074 0.188024 5.02525 0.120087C4.70956 0.0393992 4.34587 -0.00216326 3.97437 8.67414e-05C3.62631 0.00221174 3.22956 0.0498367 2.95012 0.123024ZM2.95012 12.123C2.69925 12.1888 2.31956 12.3338 2.10637 12.4453C1.86087 12.5736 1.523 12.8438 1.18506 13.1817C0.847687 13.5191 0.577 13.8576 0.449125 14.102C0.337937 14.3146 0.191375 14.7059 0.123438 14.9714C0.0470628 15.2701 0 15.661 0 15.9966C0 16.3323 0.0470628 16.7232 0.123438 17.0219C0.191375 17.2874 0.337937 17.6786 0.449125 17.8913C0.577 18.1356 0.847687 18.4742 1.18506 18.8116C1.52244 19.149 1.861 19.4196 2.10537 19.5475C2.318 19.6587 2.70925 19.8053 2.97475 19.8732C3.27412 19.9498 3.66143 19.9963 3.99437 19.9957C4.28962 19.9952 4.71362 19.9518 4.93656 19.8993C5.15943 19.8467 5.55318 19.7025 5.81156 19.5788C6.17474 19.405 6.40324 19.232 6.81931 18.816C7.23531 18.3999 7.40831 18.1714 7.58218 17.8082C7.70587 17.5498 7.85005 17.1561 7.90262 16.9332C7.95518 16.7103 7.99855 16.2863 7.99905 15.991C7.99962 15.6581 7.95312 15.2708 7.87655 14.9714C7.80862 14.7059 7.66206 14.3146 7.55087 14.102C7.42299 13.8576 7.15231 13.5191 6.81493 13.1817C6.47756 12.8443 6.13899 12.5736 5.89462 12.4458C5.68199 12.3346 5.29074 12.188 5.02525 12.1201C4.70956 12.0394 4.34587 11.9978 3.97437 12.0001C3.62631 12.0022 3.22956 12.0498 2.95012 12.123ZM2.95012 24.123C2.69925 24.1888 2.31956 24.3338 2.10637 24.4453C1.86087 24.5736 1.523 24.8438 1.18506 25.1817C0.847687 25.5191 0.577 25.8576 0.449125 26.102C0.337937 26.3146 0.191375 26.7059 0.123438 26.9714C0.0470628 27.2701 0 27.661 0 27.9966C0 28.3323 0.0470628 28.7232 0.123438 29.0219C0.191375 29.2874 0.337937 29.6786 0.449125 29.8913C0.575312 30.1325 0.852062 30.4802 1.18506 30.816C1.60062 31.2349 1.82269 31.4037 2.18844 31.5788C2.44681 31.7025 2.84056 31.8467 3.06343 31.8993C3.28637 31.9518 3.70781 31.9948 4 31.9948C4.29218 31.9948 4.71362 31.9518 4.93656 31.8993C5.15943 31.8467 5.55318 31.7025 5.81156 31.5788C6.17474 31.405 6.40324 31.232 6.81931 30.816C7.23531 30.3999 7.40831 30.1714 7.58218 29.8082C7.70587 29.5498 7.85005 29.1561 7.90262 28.9332C7.95518 28.7103 7.99855 28.2863 7.99905 27.991C7.99962 27.6581 7.95312 27.2708 7.87655 26.9714C7.80862 26.7059 7.66206 26.3146 7.55087 26.102C7.42299 25.8576 7.15231 25.5191 6.81493 25.1817C6.47756 24.8443 6.13899 24.5736 5.89462 24.4458C5.68199 24.3346 5.29074 24.188 5.02525 24.1201C4.70956 24.0394 4.34587 23.9978 3.97437 24.0001C3.62631 24.0022 3.22956 24.0498 2.95012 24.123Z" fill="#8C4E03"/>
</svg>
